<svg width="40" height="40" viewBox="0 0 40 40" fill="none" xmlns="http://www.w3.org/2000/svg">
<g clip-path="url(#clip0_113_2590)">
<path d="M17.6001 0.799988H2.00005C1.33757 0.799988 0.800049 1.33751 0.800049 1.99999V12.8C0.800049 13.4625 1.33757 14 2.00005 14H5.39381C4.88445 15.4375 3.52505 16.3984 2.00005 16.4C1.33757 16.4 0.800049 16.9375 0.800049 17.6C0.800049 18.2625 1.33757 18.8 2.00005 18.8C4.85005 18.7969 7.30645 16.7922 7.87965 14H11.7203C12.2937 16.7922 14.75 18.7968 17.5999 18.8C18.2624 18.8 18.7999 18.2625 18.7999 17.6C18.7999 16.9375 18.2624 16.4 17.5999 16.4C16.0749 16.3984 14.7155 15.4375 14.2061 14H17.5999C18.2624 14 18.7999 13.4625 18.7999 12.8V1.99999C18.7999 1.33751 18.2625 0.799988 17.6001 0.799988ZM16.4001 6.79999H13.5938C14.1345 5.66091 14.1345 4.33907 13.5938 3.19999H16.4001V6.79999ZM8.00005 4.99999C8.00005 4.00623 8.80629 3.19999 9.80005 3.19999C10.7938 3.19999 11.6 4.00623 11.6 4.99999C11.6 5.99375 10.7938 6.79999 9.80005 6.79999C8.80629 6.79843 8.00161 5.99375 8.00005 4.99999ZM6.00629 3.19999C5.46565 4.33907 5.46565 5.66091 6.00629 6.79999H3.20005V3.19999H6.00629ZM3.20005 11.6V9.19999H16.4001V11.6H3.20005ZM39.2 12.8V1.99999C39.2 1.33751 38.6625 0.799988 38 0.799988H22.4001C21.7376 0.799988 21.2001 1.33751 21.2001 1.99999V12.8C21.2001 13.4625 21.7376 14 22.4001 14H25.7938C25.2844 15.4375 23.9251 16.3984 22.4001 16.4C21.7376 16.4 21.2001 16.9375 21.2001 17.6C21.2001 18.2625 21.7376 18.8 22.4001 18.8C25.2501 18.7969 27.7064 16.7922 28.2796 14H32.1203C32.6937 16.7922 35.15 18.7968 37.9999 18.8C38.6624 18.8 39.1999 18.2625 39.1999 17.6C39.1999 16.9375 38.6624 16.4 37.9999 16.4C36.4749 16.3984 35.1155 15.4375 34.6061 14H37.9999C38.6624 14 39.2 13.4625 39.2 12.8ZM36.8 6.79999H33.9938C34.5345 5.66091 34.5345 4.33907 33.9938 3.19999H36.8V6.79999ZM28.4001 4.99999C28.4001 4.00623 29.2063 3.19999 30.2001 3.19999C31.1938 3.19999 32 4.00623 32 4.99999C32 5.99375 31.1938 6.79999 30.2001 6.79999C29.2063 6.79843 28.4016 5.99375 28.4001 4.99999ZM26.4063 3.19999C25.8657 4.33907 25.8657 5.66091 26.4063 6.79999H23.6001V3.19999H26.4063ZM23.6001 11.6V9.19999H36.8V11.6H23.6001ZM17.6001 21.2H2.00005C1.33757 21.2 0.800049 21.7375 0.800049 22.4V33.2C0.800049 33.8625 1.33757 34.4 2.00005 34.4H5.39381C4.88445 35.8375 3.52505 36.7984 2.00005 36.8C1.33757 36.8 0.800049 37.3375 0.800049 38C0.800049 38.6625 1.33757 39.2 2.00005 39.2C4.85005 39.1969 7.30645 37.1922 7.87965 34.4H11.7203C12.2937 37.1922 14.75 39.1968 17.5999 39.2C18.2624 39.2 18.7999 38.6625 18.7999 38C18.7999 37.3375 18.2624 36.8 17.5999 36.8C16.0749 36.7984 14.7155 35.8375 14.2061 34.4H17.5999C18.2624 34.4 18.7999 33.8625 18.7999 33.2V22.4C18.7999 21.7375 18.2625 21.2 17.6001 21.2ZM16.4001 27.2H13.5938C14.1345 26.0609 14.1345 24.7391 13.5938 23.6H16.4001V27.2ZM8.00005 25.4C8.00005 24.4062 8.80629 23.6 9.80005 23.6C10.7938 23.6 11.6 24.4062 11.6 25.4C11.6 26.3937 10.7938 27.2 9.80005 27.2C8.80629 27.1984 8.00161 26.3937 8.00005 25.4ZM6.00629 23.6C5.46565 24.7391 5.46565 26.0609 6.00629 27.2H3.20005V23.6H6.00629ZM3.20005 32V29.6H16.4001V32H3.20005ZM38 21.2H22.4001C21.7376 21.2 21.2001 21.7375 21.2001 22.4V33.2C21.2001 33.8625 21.7376 34.4 22.4001 34.4H25.7938C25.2844 35.8375 23.9251 36.7984 22.4001 36.8C21.7376 36.8 21.2001 37.3375 21.2001 38C21.2001 38.6625 21.7376 39.2 22.4001 39.2C25.2501 39.1969 27.7064 37.1922 28.2796 34.4H32.1203C32.6937 37.1922 35.15 39.1968 37.9999 39.2C38.6624 39.2 39.1999 38.6625 39.1999 38C39.1999 37.3375 38.6624 36.8 37.9999 36.8C36.4749 36.7984 35.1155 35.8375 34.6061 34.4H37.9999C38.6624 34.4 39.1999 33.8625 39.1999 33.2V22.4C39.1999 21.7375 38.6625 21.2 38 21.2ZM36.8 27.2H33.9938C34.5345 26.0609 34.5345 24.7391 33.9938 23.6H36.8V27.2ZM28.4001 25.4C28.4001 24.4062 29.2063 23.6 30.2001 23.6C31.1938 23.6 32 24.4062 32 25.4C32 26.3937 31.1938 27.2 30.2001 27.2C29.2063 27.1984 28.4016 26.3937 28.4001 25.4ZM26.4063 23.6C25.8657 24.7391 25.8657 26.0609 26.4063 27.2H23.6001V23.6H26.4063ZM23.6001 32V29.6H36.8V32H23.6001Z" fill="#FFFF00"/>
</g>
<defs>
<clipPath id="clip0_113_2590">
<rect width="40" height="40" fill="white"/>
</clipPath>
</defs>
</svg>
