<svg width="32" height="36" viewBox="0 0 32 36" fill="none" xmlns="http://www.w3.org/2000/svg">
<path d="M5.04042 11.5706C4.99768 11.5706 4.95542 11.5595 4.91701 11.5374L0.12246 8.76322C0.0465845 8.71904 -0.000477037 8.63788 3.64745e-06 8.55048L0.0052861 3.01105C0.0052861 2.92317 0.0523476 2.84201 0.128703 2.79831L4.92804 0.0327156C5.00392 -0.0109849 5.09756 -0.0109849 5.17392 0.0331959L9.96896 2.80739C10.0448 2.85158 10.0914 2.93273 10.0914 3.02062L10.0861 8.56004C10.0861 8.64792 10.0391 8.72908 9.96272 8.77278L5.16337 11.5379C5.12544 11.5595 5.08316 11.5706 5.04042 11.5706ZM0.491751 8.40922L5.04092 11.0413L9.59487 8.41734L9.59968 3.16178L5.051 0.529693L0.496553 3.15317L0.491751 8.40922Z" fill="#FFFF00"/>
<path d="M26.2658 11.5706C26.223 11.5706 26.1808 11.5595 26.1423 11.5374L21.3478 8.76322C21.2719 8.71904 21.2249 8.63788 21.2253 8.55048L21.2306 3.01105C21.2306 2.92317 21.2777 2.84201 21.354 2.79831L26.1534 0.0327156C26.2293 -0.0109849 26.3229 -0.0109849 26.3993 0.0331959L31.1943 2.80739C31.2702 2.85158 31.3168 2.93273 31.3168 3.02062L31.3115 8.56004C31.3115 8.64792 31.2644 8.72908 31.1881 8.77278L26.3887 11.5379C26.3508 11.5595 26.3085 11.5706 26.2658 11.5706ZM21.7171 8.40922L26.2663 11.0413L30.8202 8.41734L30.825 3.16178L26.2763 0.529693L21.7219 3.15317L21.7171 8.40922Z" fill="#FFFF00"/>
<path d="M5.04042 23.7853C4.99768 23.7853 4.95542 23.7742 4.91701 23.7521L0.12246 20.9779C0.0465845 20.9338 -0.000477037 20.8526 3.64745e-06 20.7652L0.0052861 15.2258C0.0052861 15.1379 0.0523476 15.0567 0.128703 15.013L4.92804 12.2474C5.00392 12.2037 5.09756 12.2037 5.17392 12.2479L9.96896 15.0221C10.0448 15.0663 10.0914 15.1475 10.0914 15.2353L10.0861 20.7748C10.0861 20.8626 10.0391 20.9438 9.96272 20.9875L5.16337 23.7526C5.12544 23.7742 5.08316 23.7853 5.04042 23.7853ZM0.491751 20.6239L5.04092 23.256L9.59487 20.6321L9.59968 15.3765L5.051 12.7444L0.496553 15.3679L0.491751 20.6239Z" fill="#FFFF00"/>
<path d="M15.6679 23.7853C15.6251 23.7853 15.5829 23.7742 15.5444 23.7521L10.7499 20.9779C10.674 20.9338 10.627 20.8526 10.6274 20.7652L10.6327 15.2258C10.6327 15.1379 10.6798 15.0567 10.7561 15.013L15.5555 12.2474C15.6314 12.2037 15.725 12.2037 15.8014 12.2479L20.5964 15.0221C20.6723 15.0663 20.7189 15.1475 20.7189 15.2353L20.7136 20.7748C20.7136 20.8626 20.6665 20.9438 20.5902 20.9875L15.7908 23.7526C15.7529 23.7742 15.7106 23.7853 15.6679 23.7853ZM11.1192 20.6239L15.6684 23.256L20.2223 20.6321L20.2271 15.3765L15.6784 12.7444L11.124 15.3679L11.1192 20.6239Z" fill="#FFFF00"/>
<path d="M15.6679 23.7853C15.6251 23.7853 15.5829 23.7742 15.5444 23.7521L10.7499 20.9779C10.674 20.9338 10.627 20.8526 10.6274 20.7652L10.6327 15.2258C10.6327 15.1379 10.6798 15.0567 10.7561 15.013L15.5555 12.2474C15.6314 12.2037 15.725 12.2037 15.8014 12.2479L20.5964 15.0221C20.6723 15.0663 20.7189 15.1475 20.7189 15.2353L20.7136 20.7748C20.7136 20.8626 20.6665 20.9438 20.5902 20.9875L15.7908 23.7526C15.7529 23.7742 15.7106 23.7853 15.6679 23.7853ZM11.1192 20.6239L15.6684 23.256L20.2223 20.6321L20.2271 15.3765L15.6784 12.7444L11.124 15.3679L11.1192 20.6239Z" fill="#FFFF00"/>
<path d="M26.2951 23.7853C26.2523 23.7853 26.2101 23.7742 26.1716 23.7521L21.3771 20.9779C21.3012 20.9338 21.2542 20.8526 21.2546 20.7652L21.2599 15.2258C21.2599 15.1379 21.307 15.0567 21.3833 15.013L26.1827 12.2474C26.2586 12.2037 26.3522 12.2037 26.4286 12.2479L31.2236 15.0221C31.2995 15.0663 31.3461 15.1475 31.3461 15.2353L31.3408 20.7748C31.3408 20.8626 31.2937 20.9438 31.2174 20.9875L26.418 23.7526C26.3801 23.7742 26.3378 23.7853 26.2951 23.7853ZM21.7464 20.6239L26.2956 23.256L30.8495 20.6321L30.8543 15.3765L26.3056 12.7444L21.7512 15.3679L21.7464 20.6239Z" fill="#FFFF00"/>
<path d="M5.04042 36C4.99768 36 4.95542 35.9889 4.91701 35.9669L0.12246 33.1927C0.0465845 33.1485 -0.000477037 33.0673 3.64745e-06 32.9799L0.0052861 27.4405C0.0052861 27.3526 0.0523476 27.2715 0.128703 27.2278L4.92804 24.4622C5.00392 24.4185 5.09756 24.4185 5.17392 24.4626L9.96896 27.2368C10.0448 27.281 10.0914 27.3622 10.0914 27.4501L10.0861 32.9895C10.0861 33.0774 10.0391 33.1585 9.96272 33.2022L5.16337 35.9673C5.12544 35.9889 5.08316 36 5.04042 36ZM0.491751 32.8387L5.04092 35.4708L9.59487 32.8468L9.59968 27.5912L5.051 24.9591L0.496553 27.5826L0.491751 32.8387Z" fill="#FFFF00"/>
<path d="M26.2658 36C26.223 36 26.1808 35.9889 26.1423 35.9669L21.3478 33.1927C21.2719 33.1485 21.2249 33.0673 21.2253 32.9799L21.2306 27.4405C21.2306 27.3526 21.2777 27.2715 21.354 27.2278L26.1534 24.4622C26.2293 24.4185 26.3229 24.4185 26.3993 24.4626L31.1943 27.2368C31.2702 27.281 31.3168 27.3622 31.3168 27.4501L31.3115 32.9895C31.3115 33.0774 31.2644 33.1585 31.1881 33.2022L26.3887 35.9673C26.3508 35.9889 26.3085 36 26.2658 36ZM21.7171 32.8387L26.2663 35.4708L30.8202 32.8468L30.825 27.5912L26.2763 24.9591L21.7219 27.5826L21.7171 32.8387Z" fill="#FFFF00"/>
</svg>
