<svg width="36" height="28" viewBox="0 0 36 28" fill="none" xmlns="http://www.w3.org/2000/svg">
<path d="M5.99372 28C5.94289 28 5.89264 27.9876 5.84696 27.9628L0.145621 24.8458C0.055395 24.7962 -0.000567258 24.705 4.3373e-06 24.6068L0.00628586 18.383C0.00628586 18.2843 0.0622481 18.1931 0.153044 18.144L5.86008 15.0368C5.95031 14.9877 6.06166 14.9877 6.15246 15.0373L11.8544 18.1542C11.9446 18.2039 12 18.295 12 18.3938L11.9937 24.6176C11.9937 24.7163 11.9378 24.8075 11.847 24.8566L6.13992 27.9633C6.09481 27.9876 6.04454 28 5.99372 28ZM0.584755 24.4481L5.9943 27.4054L11.4095 24.4572L11.4153 18.5524L6.0063 15.5951L0.590466 18.5427L0.584755 24.4481Z" fill="white"/>
<path d="M13.9937 23C13.9429 23 13.8926 22.9876 13.847 22.9628L8.14562 19.8458C8.0554 19.7962 7.99943 19.705 8 19.6068L8.00629 13.383C8.00629 13.2843 8.06225 13.1931 8.15304 13.144L13.8601 10.0368C13.9503 9.98766 14.0617 9.98766 14.1525 10.0373L19.8544 13.1542C19.9446 13.2039 20 13.295 20 13.3938L19.9937 19.6176C19.9937 19.7163 19.9378 19.8075 19.847 19.8566L14.1399 22.9633C14.0948 22.9876 14.0445 23 13.9937 23ZM8.58476 19.4481L13.9943 22.4054L19.4095 19.4572L19.4153 13.5524L14.0063 10.5951L8.59047 13.5427L8.58476 19.4481Z" fill="white"/>
<path d="M29.9937 13C29.9429 13 29.8926 12.9876 29.847 12.9628L24.1456 9.84584C24.0554 9.7962 23.9994 9.70502 24 9.60682L24.0063 3.38304C24.0063 3.28431 24.0622 3.19312 24.153 3.14402L29.8601 0.0367573C29.9503 -0.012342 30.0617 -0.012342 30.1525 0.0372969L35.8544 3.15423C35.9446 3.20387 36 3.29504 36 3.39379L35.9937 9.61756C35.9937 9.7163 35.9378 9.80749 35.847 9.85659L30.1399 12.9633C30.0948 12.9876 30.0445 13 29.9937 13ZM24.5848 9.44812L29.9943 12.4054L35.4095 9.45723L35.4153 3.55239L30.0063 0.595132L24.5905 3.54272L24.5848 9.44812Z" fill="#FFFF00"/>
</svg>
