<svg width="22" height="25" viewBox="0 0 22 25" fill="none" xmlns="http://www.w3.org/2000/svg">
<path d="M10.7031 25C10.6123 25 10.5226 24.9761 10.441 24.9284L0.260037 18.9343C0.0989197 18.8389 -0.00101296 18.6635 7.74517e-06 18.4747L0.0112247 6.50585C0.0112247 6.31597 0.111157 6.14062 0.273293 6.04619L10.4644 0.0706871C10.6256 -0.0237346 10.8244 -0.0237346 10.9865 0.0717249L21.1685 6.06582C21.3297 6.16128 21.4286 6.33662 21.4286 6.52652L21.4174 18.4953C21.4174 18.6852 21.3174 18.8606 21.1553 18.955L10.9641 24.9294C10.8836 24.9761 10.7938 25 10.7031 25ZM1.04421 18.1695L10.7041 23.8565L20.3742 18.187L20.3844 6.83152L10.7255 1.14448L1.0544 6.81292L1.04421 18.1695Z" fill="white"/>
<path d="M9.45465 17L7 14.3333L7.81803 13.4446L9.45465 15.2226L15.182 9L16 9.88928L9.45465 17Z" fill="#FFFF00"/>
</svg>
