<svg width="22" height="26" viewBox="0 0 22 26" fill="none" xmlns="http://www.w3.org/2000/svg">
<path d="M3.53758 8.12069C3.50758 8.12069 3.47792 8.11294 3.45096 8.09744L0.0859475 6.15039C0.0326949 6.11938 -0.000334804 6.06242 2.55993e-06 6.00108L0.00371 2.11328C0.00371 2.0516 0.0367397 1.99464 0.0903288 1.96397L3.45871 0.0229611C3.51196 -0.00770966 3.57768 -0.00770966 3.63127 0.0232982L6.99663 1.97035C7.04988 2.00135 7.08257 2.05831 7.08257 2.11999L7.07886 6.00779C7.07886 6.06947 7.04584 6.12643 6.99225 6.1571L3.62387 8.09776C3.59724 8.11293 3.56757 8.12069 3.53758 8.12069ZM0.345131 5.90194L3.53792 7.74925L6.73408 5.90764L6.73745 2.21907L3.545 0.37176L0.348502 2.21303L0.345131 5.90194Z" fill="white"/>
<path d="M18.4344 8.12069C18.4044 8.12069 18.3748 8.11294 18.3478 8.09744L14.9828 6.15039C14.9295 6.11938 14.8965 6.06242 14.8969 6.00108L14.9006 2.11328C14.9006 2.0516 14.9336 1.99464 14.9872 1.96397L18.3556 0.0229611C18.4088 -0.00770966 18.4745 -0.00770966 18.5281 0.0232982L21.8935 1.97035C21.9467 2.00135 21.9794 2.05831 21.9794 2.11999L21.9757 6.00779C21.9757 6.06947 21.9427 6.12643 21.8891 6.1571L18.5207 8.09776C18.4941 8.11293 18.4644 8.12069 18.4344 8.12069ZM15.242 5.90194L18.4348 7.74925L21.6309 5.90764L21.6343 2.21907L18.4419 0.37176L15.2454 2.21303L15.242 5.90194Z" fill="white"/>
<path d="M3.53758 16.6935C3.50758 16.6935 3.47792 16.6858 3.45096 16.6703L0.0859475 14.7232C0.0326949 14.6922 -0.000334804 14.6352 2.55993e-06 14.5739L0.00371 10.6861C0.00371 10.6244 0.0367397 10.5675 0.0903288 10.5368L3.45871 8.59578C3.51196 8.56511 3.57768 8.56511 3.63127 8.59611L6.99663 10.5432C7.04988 10.5742 7.08257 10.6311 7.08257 10.6928L7.07886 14.5806C7.07886 14.6423 7.04584 14.6992 6.99225 14.7299L3.62387 16.6706C3.59724 16.6857 3.56757 16.6935 3.53758 16.6935ZM0.345131 14.4748L3.53792 16.3221L6.73408 14.4805L6.73745 10.7919L3.545 8.94458L0.348502 10.7858L0.345131 14.4748Z" fill="white"/>
<path d="M10.9963 16.6935C10.9663 16.6935 10.9367 16.6858 10.9097 16.6703L7.54469 14.7232C7.49144 14.6922 7.45841 14.6352 7.45874 14.5739L7.46245 10.6861C7.46245 10.6244 7.49548 10.5675 7.54907 10.5368L10.9174 8.59578C10.9707 8.56511 11.0364 8.56511 11.09 8.59611L14.4554 10.5432C14.5086 10.5742 14.5413 10.6311 14.5413 10.6928L14.5376 14.5806C14.5376 14.6423 14.5046 14.6992 14.451 14.7299L11.0826 16.6706C11.056 16.6857 11.0263 16.6935 10.9963 16.6935ZM7.80387 14.4748L10.9967 16.3221L14.1928 14.4805L14.1962 10.7919L11.0037 8.94458L7.80724 10.7858L7.80387 14.4748Z" fill="white"/>
<path d="M10.9963 16.6935C10.9663 16.6935 10.9367 16.6858 10.9097 16.6703L7.54469 14.7232C7.49144 14.6922 7.45841 14.6352 7.45874 14.5739L7.46245 10.6861C7.46245 10.6244 7.49548 10.5675 7.54907 10.5368L10.9174 8.59578C10.9707 8.56511 11.0364 8.56511 11.09 8.59611L14.4554 10.5432C14.5086 10.5742 14.5413 10.6311 14.5413 10.6928L14.5376 14.5806C14.5376 14.6423 14.5046 14.6992 14.451 14.7299L11.0826 16.6706C11.056 16.6857 11.0263 16.6935 10.9963 16.6935ZM7.80387 14.4748L10.9967 16.3221L14.1928 14.4805L14.1962 10.7919L11.0037 8.94458L7.80724 10.7858L7.80387 14.4748Z" fill="#FFFF00"/>
<path d="M18.4549 16.6935C18.4249 16.6935 18.3953 16.6858 18.3683 16.6703L15.0033 14.7232C14.9501 14.6922 14.917 14.6352 14.9174 14.5739L14.9211 10.6861C14.9211 10.6244 14.9541 10.5675 15.0077 10.5368L18.3761 8.59578C18.4293 8.56511 18.495 8.56511 18.5486 8.59611L21.914 10.5432C21.9672 10.5742 21.9999 10.6311 21.9999 10.6928L21.9962 14.5806C21.9962 14.6423 21.9632 14.6992 21.9096 14.7299L18.5412 16.6706C18.5146 16.6857 18.4849 16.6935 18.4549 16.6935ZM15.2625 14.4748L18.4553 16.3221L21.6514 14.4805L21.6548 10.7919L18.4624 8.94458L15.2659 10.7858L15.2625 14.4748Z" fill="white"/>
<path d="M3.53758 25.2663C3.50758 25.2663 3.47792 25.2586 3.45096 25.2431L0.0859475 23.296C0.0326949 23.265 -0.000334804 23.2081 2.55993e-06 23.1467L0.00371 19.2589C0.00371 19.1972 0.0367397 19.1403 0.0903288 19.1096L3.45871 17.1686C3.51196 17.1379 3.57768 17.1379 3.63127 17.1689L6.99663 19.116C7.04988 19.147 7.08257 19.2039 7.08257 19.2656L7.07886 23.1534C7.07886 23.2151 7.04584 23.2721 6.99225 23.3027L3.62387 25.2434C3.59724 25.2586 3.56757 25.2663 3.53758 25.2663ZM0.345131 23.0476L3.53792 24.8949L6.73408 23.0533L6.73745 19.3647L3.545 17.5174L0.348502 19.3587L0.345131 23.0476Z" fill="white"/>
<path d="M18.4344 25.2663C18.4044 25.2663 18.3748 25.2586 18.3478 25.2431L14.9828 23.296C14.9295 23.265 14.8965 23.2081 14.8969 23.1467L14.9006 19.2589C14.9006 19.1972 14.9336 19.1403 14.9872 19.1096L18.3556 17.1686C18.4088 17.1379 18.4745 17.1379 18.5281 17.1689L21.8935 19.116C21.9467 19.147 21.9794 19.2039 21.9794 19.2656L21.9757 23.1534C21.9757 23.2151 21.9427 23.2721 21.8891 23.3027L18.5207 25.2434C18.4941 25.2586 18.4644 25.2663 18.4344 25.2663ZM15.242 23.0476L18.4348 24.8949L21.6309 23.0533L21.6343 19.3647L18.4419 17.5174L15.2454 19.3587L15.242 23.0476Z" fill="white"/>
</svg>
