<svg width="23" height="24" viewBox="0 0 23 24" fill="none" xmlns="http://www.w3.org/2000/svg">
<path d="M11.0884 17.8917V23.075C11.0884 23.2916 11.2684 23.435 11.4484 23.435C11.6284 23.435 11.8084 23.255 11.8084 23.075V17.8917C13.3567 17.7117 14.5801 16.38 14.5801 14.7951C14.5801 13.2117 13.3567 11.8786 11.8084 11.6986V0.36C11.8084 0.143438 11.6284 0 11.4484 0C11.2684 0 11.0884 0.18 11.0884 0.36V11.7C9.54014 11.88 8.31672 13.2117 8.31672 14.7966C8.31532 16.38 9.54014 17.7117 11.0884 17.8917ZM11.4484 12.3834C12.7801 12.3834 13.825 13.4634 13.825 14.7599C13.825 16.0916 12.745 17.1365 11.4484 17.1365C10.1519 17.1365 9.07186 16.0565 9.07186 14.7599C9.03529 13.4634 10.1153 12.3834 11.4484 12.3834ZM2.77171 12.2034V22.8234C2.77171 23.0399 2.95171 23.1834 3.13171 23.1834C3.31171 23.1834 3.49171 23.0034 3.49171 22.8234V12.2034C5.04 12.0234 6.26342 10.6916 6.26342 9.10678C6.26342 7.52335 5.04 6.1902 3.49171 6.0102V0.36C3.49171 0.143438 3.31171 0 3.13171 0C2.95171 0 2.77171 0.18 2.77171 0.36V6.01164C1.22342 6.19164 0 7.52335 0 9.10822C0.0351565 10.7282 1.22342 12.0234 2.77171 12.2034ZM3.13171 6.73171H3.16827C4.46485 6.73171 5.54485 7.81171 5.54485 9.10829C5.54485 10.44 4.46485 11.4849 3.16827 11.4849C1.83656 11.4849 0.791698 10.4049 0.791698 9.10829C0.755136 7.81171 1.8 6.73171 3.13171 6.73171ZM19.295 12.2034V23.4001C19.295 23.6166 19.475 23.7601 19.655 23.7601C19.8716 23.7601 20.015 23.5801 20.015 23.4001V12.2034C21.5633 12.0234 22.7867 10.6916 22.7867 9.10678C22.7867 7.52335 21.5633 6.1902 20.015 6.0102V0.68328C20.015 0.466719 19.835 0.32328 19.655 0.32328C19.4384 0.32328 19.295 0.50328 19.295 0.68328V6.01164C17.7467 6.19164 16.5233 7.52335 16.5233 9.10822C16.5598 10.7282 17.7481 12.0234 19.295 12.2034ZM19.6916 6.73171C21.0233 6.73171 22.0681 7.81171 22.0681 9.10829C22.0681 10.44 20.9881 11.4849 19.6916 11.4849C18.395 11.4849 17.315 10.4049 17.315 9.10829C17.2798 7.81171 18.3598 6.73171 19.6916 6.73171Z" fill="white"/>
<circle cx="11.5" cy="14.5" r="3.5" fill="#FFFF00"/>
</svg>
