<svg width="44" height="44" viewBox="0 0 44 44" fill="none" xmlns="http://www.w3.org/2000/svg">
<path fill-rule="evenodd" clip-rule="evenodd" d="M19.7089 18.927V27.5H12.8339C12.6809 27.5 12.5383 27.5773 12.4524 27.7045L7.87019 34.5795C7.81863 34.6552 7.79285 34.7428 7.79285 34.8339V40.7911C7.79285 41.0454 7.99738 41.25 8.25177 41.25H35.7518C36.0044 41.25 36.209 41.0455 36.209 40.7911V34.8339C36.209 34.7428 36.1832 34.6552 36.1333 34.5795L31.5494 27.7045C31.4635 27.5773 31.3208 27.5 31.1679 27.5H24.2929V18.927C27.7338 17.9336 30.2518 14.7591 30.2518 11C30.2518 6.44688 26.5548 2.75 22.0018 2.75C17.4488 2.75 13.7518 6.44701 13.7518 11C13.7518 14.7589 16.2697 17.9335 19.7089 18.927ZM35.2928 35.2911H8.70891V40.3339H35.2928V35.2911ZM24.2928 28.4161V28.9798C26.4018 29.15 28.1085 29.5573 28.9749 30.0592C29.5386 30.3875 29.793 30.7948 29.793 31.1747C29.793 31.6009 29.4527 32.0719 28.7136 32.4259C27.4555 33.0309 24.9221 33.4589 22.0019 33.4589C19.08 33.4589 16.5468 33.031 15.2884 32.4259C14.551 32.0719 14.209 31.6009 14.209 31.1747C14.209 30.7948 14.4634 30.3875 15.0289 30.0592C15.8934 29.5573 17.6018 29.15 19.7091 28.9798V28.4161H13.0801L9.10808 34.375H34.896L30.9223 28.4161H24.2928ZM24.2928 29.8994V30.7089C24.2928 30.9083 24.1742 31.1644 23.8288 31.3311C23.4867 31.4961 22.7975 31.625 22.0018 31.625C21.206 31.625 20.5168 31.4961 20.173 31.3311C19.8276 31.1644 19.709 30.9083 19.709 30.7089V29.8994C18.0899 30.0334 16.7287 30.3067 15.871 30.6659C15.6011 30.7777 15.3863 30.8962 15.2419 31.0252C15.1835 31.0784 15.1267 31.118 15.1267 31.1747C15.1267 31.2177 15.1663 31.2486 15.2075 31.2898C15.3158 31.3998 15.4791 31.5012 15.6853 31.5992C16.8695 32.1681 19.2552 32.5411 22.0015 32.5411C24.7481 32.5411 27.1337 32.1681 28.3164 31.5992C28.5227 31.5012 28.6859 31.3998 28.7959 31.2898C28.8354 31.2486 28.8767 31.2177 28.8767 31.1747C28.8767 31.118 28.82 31.0784 28.7598 31.0252C28.6154 30.8962 28.4006 30.7777 28.1325 30.6659C27.2731 30.3067 25.9119 30.0334 24.2928 29.8994ZM23.3768 19.1348C22.9282 19.2104 22.4693 19.2499 22.0018 19.2499C21.5325 19.2499 21.0736 19.2104 20.6268 19.1348V30.5233C20.6886 30.5473 20.7746 30.5783 20.8502 30.5955C21.151 30.6677 21.5566 30.7089 22.0018 30.7089C22.4452 30.7089 22.8508 30.6677 23.1516 30.5955C23.2272 30.5783 23.3132 30.5473 23.3768 30.5233L23.3768 19.1348ZM22.0018 3.66612C26.0477 3.66612 29.3339 6.9524 29.3339 11C29.3339 15.0477 26.0476 18.334 22.0018 18.334C17.9541 18.334 14.6678 15.0477 14.6678 11C14.6678 6.9524 17.9541 3.66612 22.0018 3.66612ZM23.834 5.95892C22.569 5.95892 21.5429 6.985 21.5429 8.25C21.5429 9.515 22.569 10.5411 23.834 10.5411C25.099 10.5411 26.1268 9.515 26.1268 8.25C26.1268 6.985 25.099 5.95892 23.834 5.95892ZM23.834 6.875C24.5937 6.875 25.209 7.4903 25.209 8.25C25.209 9.0097 24.5937 9.625 23.834 9.625C23.076 9.625 22.459 9.0097 22.459 8.25C22.459 7.4903 23.076 6.875 23.834 6.875Z" fill="#FFFF00"/>
</svg>
