<svg width="44" height="44" viewBox="0 0 44 44" fill="none" xmlns="http://www.w3.org/2000/svg">
<path d="M22.0001 41.8C20.4549 41.8 19.0009 41.5285 17.7307 41.0507C19.0662 41.3772 20.5031 41.556 22.0001 41.556C23.4971 41.556 24.934 41.3772 26.2694 41.0507C24.9993 41.5285 23.5452 41.8 22.0001 41.8Z" fill="#FFFF00"/>
<path d="M22 40.9852C17.9592 40.9852 14.3739 39.6583 12.1638 37.6216C14.9018 38.8969 18.3102 39.6566 22 39.6566C25.6899 39.6566 29.0985 38.8986 31.8362 37.6216C29.6259 39.6583 26.0405 40.9852 22 40.9852Z" fill="#FFFF00"/>
<path d="M22.0001 39.0861C14.8862 39.0861 8.86036 36.2347 6.90588 32.333C10.4225 34.8062 15.8779 36.3995 22.0001 36.3995C28.1222 36.3995 33.5791 34.8062 37.0943 32.3312C35.1401 36.2345 29.114 39.0861 22.0001 39.0861Z" fill="#FFFF00"/>
<path d="M22 35.8292C11.9882 35.8292 3.80027 31.5495 3.40295 26.2078C6.58609 29.8103 13.7205 32.3282 22 32.3282C30.2773 32.3282 37.4136 29.8102 40.597 26.206C40.2 31.548 32.0118 35.8292 22 35.8292Z" fill="#FFFF00"/>
<path d="M3.38253 17.6567C3.38253 15.8503 4.27802 14.1574 5.83518 12.6913C5.72518 13.1606 5.66502 13.6401 5.66502 14.1282C5.66502 19.6731 12.9919 24.1844 21.9983 24.1844C31.0046 24.1844 38.3315 19.6727 38.3315 14.1282C38.3315 13.6401 38.2714 13.1606 38.1631 12.6913C39.7203 14.1557 40.614 15.8504 40.614 17.6567C40.614 23.1858 32.2628 27.6857 21.998 27.6857C11.7333 27.6857 3.38208 23.1875 3.38208 17.6567H3.38253Z" fill="#FFFF00"/>
<path d="M24.5678 4.0855C24.5678 5.12707 23.418 5.9727 22 5.9727C20.5821 5.9727 19.4323 5.12707 19.4323 4.0855C19.4323 3.04393 20.5821 2.20001 22 2.20001C23.418 2.20001 24.5678 3.04393 24.5678 4.0855Z" fill="#FFFF00"/>
<path d="M18.8616 4.08551C18.8616 5.43987 20.2692 6.54159 22 6.54159C23.7308 6.54159 25.1384 5.43987 25.1384 4.08551C25.1384 3.52865 24.8978 3.01644 24.4974 2.60394C26.4344 3.26051 27.7767 4.64924 27.7767 6.25801C27.7767 8.49581 25.1849 10.316 22 10.316C18.8134 10.316 16.2214 8.49585 16.2214 6.25801C16.2214 4.64928 17.5655 3.26051 19.5025 2.60394C19.102 3.01644 18.8616 3.52865 18.8616 4.08551Z" fill="#FFFF00"/>
<path d="M15.6508 6.25813C15.6508 8.81048 18.4988 10.8869 22 10.8869C25.5012 10.8869 28.3475 8.81066 28.3475 6.25813C28.3475 5.03612 27.6909 3.92749 26.627 3.09906C29.2343 4.19048 30.9875 6.16876 30.9875 8.42878C30.9875 11.8628 26.9553 14.6574 22 14.6574C17.0448 14.6574 13.0126 11.8627 13.0126 8.42878C13.0126 6.16863 14.7657 4.19035 17.3731 3.09906C16.3091 3.92749 15.6508 5.03607 15.6508 6.25813Z" fill="#FFFF00"/>
<path d="M12.4419 8.42865C12.4419 12.1772 16.7302 15.228 22.0001 15.228C27.2699 15.228 31.5582 12.1772 31.5582 8.42865C31.5582 7.31835 31.1749 6.27335 30.508 5.34521C32.7545 6.82164 34.1518 8.8738 34.1518 11.1427C34.1535 15.6254 28.7015 19.2725 22.0003 19.2725C15.2991 19.2725 9.84705 15.6253 9.84705 11.1444C9.84705 8.87569 11.2444 6.82348 13.4908 5.34697C12.8256 6.27339 12.4419 7.31835 12.4419 8.42865Z" fill="#FFFF00"/>
<path d="M9.27605 11.1426C9.27605 15.9394 14.9842 19.8414 22 19.8414C29.0158 19.8414 34.7239 15.9398 34.7239 11.1426C34.7239 9.9652 34.3784 8.84285 33.7562 7.81677C36.2467 9.49427 37.7644 11.7063 37.7644 14.1281C37.7644 19.3584 30.6936 23.6141 22.0018 23.6141C13.3101 23.6141 6.23926 19.3585 6.23926 14.1281C6.23926 11.7064 7.75691 9.49449 10.2474 7.81677C9.62347 8.84285 9.27605 9.9652 9.27605 11.1426Z" fill="#FFFF00"/>
<path d="M22 28.2563C31.618 28.2563 39.6053 24.3256 40.9768 19.2209C41.5096 20.1027 41.8001 21.0342 41.8001 22.0002C41.8001 27.38 32.9174 31.7576 22.0001 31.7576C11.0828 31.7576 2.20007 27.38 2.20007 22.0002C2.20007 21.0342 2.49054 20.1027 3.02336 19.2209C4.39493 24.3271 12.3821 28.2563 22 28.2563Z" fill="#FFFF00"/>
</svg>
