<svg width="38" height="29" viewBox="0 0 38 29" fill="none" xmlns="http://www.w3.org/2000/svg">
<path d="M11.1006 0L0 6.36066V15.2434L11.1006 21.602H26.8994L38 15.2434V6.36066L26.8994 0H11.1006Z" fill="#FFFF00"/>
<path d="M10.8459 21.9168L0 15.7034V22.6413L10.8459 28.8547V21.9168Z" fill="#FFFF00"/>
<path d="M11.2469 22.0005H26.7545V29.0001H11.2469V22.0005Z" fill="#FFFF00"/>
<path d="M27.1541 28.8547L38 22.6413V15.7034L27.1541 21.9168V28.8547Z" fill="#FFFF00"/>
<path d="M20.336 2.52792L21.1325 2.92952L15.2058 14.5021L14.4093 14.1005L20.336 2.52792Z" fill="black" stroke="black"/>
<path d="M23.2096 6.52657L24.0062 6.92818L17.6684 19.3034L16.8719 18.9018L23.2096 6.52657Z" fill="black" stroke="black"/>
<line x1="26.1393" y1="10.7558" x2="11.9629" y2="10.7558" stroke="black" stroke-width="0.8"/>
</svg>
